<svg xmlns="http://www.w3.org/2000/svg" viewBox="0 0 464.33 254.81">
  <defs>
    <style>
      .cls-1 {
        fill: #fff;
      }

      .cls-2 {
        fill: #909092;
      }

      .cls-3 {
        fill: #fff;
      }
    </style>
  </defs>
  <title>brussels-logo</title>
  <g id="Layer_2" data-name="Layer 2">
    <g id="Calque_1" data-name="Calque 1">
      <g>
        <path class="cls-1" d="M12.68,195.41c0-3-.7-4.86-6.17-4.86-4.95,0-6.51,1.56-6.51,4.86,0,29.79.09,47,.09,53.84,0,2.87,1.13,4.43,5,4.43,3,0,4.69-.69,5.21-3.38.69-3.56.6-4.17,1.39-4.17,1.65,0,1.56,8.16,15.19,8.16,11.55,0,18.67-9.81,18.67-23.79,0-15.29-6.94-23.19-18-23.19s-12.68,6.25-14.16,6.25c-.69,0-.87-.35-.87-1.91s.18-2.86.18-7.29v-9ZM22.32,245c-6.08,0-10.25-5.13-10.25-13.64,0-10,4.6-13.2,10.77-13.2S33,221.38,33,230.76C33,240,28.74,245,22.32,245Zm69.73-2.43a4.24,4.24,0,0,0-4.34-4.52c-6.34,0-4.34,7-15.2,7-6.6,0-11.12-4.43-11.12-10.34,0-1.39.18-2.26,2.09-2.26l24.83.09c3.39,0,5-1,5-6.25,0-11.9-7.73-18.59-21.27-18.59-14.42,0-22.5,9.47-22.5,22.76,0,14.85,8.6,24.23,22.41,24.23,14.67,0,20.06-7.82,20.06-12.16Zm-28.4-16.24c-1.56,0-1.91-.52-1.91-1.83,0-3,3-7.72,10.68-7.72,7.38,0,10.42,4.34,10.42,7.55,0,1.39-.52,2-2.17,2Zm61,21.27c0-4.16-1.56-6.51-7.55-6.51-4.17,0-7,1.91-7,6.51,0,4.17,2.61,6.78,7.21,6.78,4.43,0,7.29-2.09,7.29-6.78Zm20.76-52.19c0-3-.7-4.86-6.17-4.86-4.95,0-6.51,1.56-6.51,4.86,0,29.79.09,47,.09,53.84,0,2.87,1.12,4.43,4.95,4.43,3,0,4.68-.69,5.21-3.38.69-3.56.6-4.17,1.39-4.17,1.65,0,1.56,8.16,15.19,8.16,11.55,0,18.67-9.81,18.67-23.79,0-15.29-6.94-23.19-18-23.19s-12.68,6.25-14.16,6.25c-.69,0-.87-.35-.87-1.91s.18-2.86.18-7.29v-9ZM155,245c-6.08,0-10.25-5.13-10.25-13.64,0-10,4.6-13.2,10.77-13.2s10.16,3.22,10.16,12.6c0,9.2-4.26,14.24-10.68,14.24Zm40.9-11.9c0-8.77,3.82-13.11,11.11-13.11,4.43,0,5-2.87,5-6.08,0-3.82-1.56-5.12-5.12-5.12-8.95,0-10.51,7.64-12,7.64-.61,0-.87-.44-1.3-3.39-.52-3.3-1.39-4.25-5-4.25s-4.77,1-4.77,3.82-.35,13.63-.35,36.64c0,3.22,1.65,4.61,6.25,4.61,4.95,0,6.17-1.48,6.17-4.61V233.1Zm62,16c0-3,.26-31.09.26-36.3,0-3.21-2-4-6.43-4-4.6,0-6.16,1.13-6.16,3.82s.17,6.51.17,17.28c0,9.55-3,14.33-9.2,14.33-5,0-7.9-3.82-7.9-11.47,0-4.42.17-18.49.17-20.06,0-3.38-1.82-4.16-6.25-4.16-4.95,0-6.17,1.47-6.17,4.34,0,15.37.09,8.94.09,22.84,0,12.76,4.95,19.1,15.11,19.1,12.42,0,12.85-8.94,14.33-8.94.78,0,.78,1.65,1.21,3.56.61,2.69,1.74,4.25,5.56,4.25,3.65,0,5.21-1.73,5.21-4.6Zm10.33-10.68c-3,0-4.34,1.47-4.34,4.6,0,4.34,5.13,11.81,19.45,11.81,14.51,0,20.93-6.34,20.93-13.81,0-6.16-2.6-10.24-17-12.76-9.81-1.74-11.29-3.3-11.29-6.6,0-3.13,2.78-4.69,7.73-4.69,4.17,0,6.95,1.3,8.95,4.69a5.12,5.12,0,0,0,4.51,2.78c3.56,0,5.65-1.57,5.65-4.52,0-6.25-5.65-12.07-19-12.07-9.81,0-19.37,4.6-19.37,14.68,0,6.08,2.61,11.55,15.11,13.63,10,1.65,12.77,2.35,12.77,5.38,0,2.18-1.65,4.35-7.73,4.35-11.64,0-10.77-7.47-16.33-7.47Zm44.9,0c-3,0-4.34,1.47-4.34,4.6,0,4.34,5.12,11.81,19.45,11.81,14.5,0,20.93-6.34,20.93-13.81,0-6.16-2.61-10.24-17-12.76-9.82-1.74-11.29-3.3-11.29-6.6,0-3.13,2.78-4.69,7.73-4.69,4.17,0,6.94,1.3,8.94,4.69a5.15,5.15,0,0,0,4.52,2.78c3.56,0,5.64-1.57,5.64-4.52,0-6.25-5.64-12.07-19-12.07-9.81,0-19.36,4.6-19.36,14.68,0,6.08,2.6,11.55,15.11,13.63,10,1.65,12.76,2.35,12.76,5.38,0,2.18-1.65,4.35-7.72,4.35-11.64,0-10.77-7.47-16.33-7.47Zm83,4.17a4.24,4.24,0,0,0-4.34-4.52c-6.34,0-4.34,7-15.2,7-6.6,0-11.12-4.43-11.12-10.34,0-1.39.18-2.26,2.09-2.26l24.83.09c3.39,0,5-1,5-6.25,0-11.9-7.73-18.59-21.27-18.59-14.42,0-22.5,9.47-22.5,22.76,0,14.85,8.6,24.23,22.41,24.23,14.67,0,20.06-7.82,20.06-12.16Zm-28.4-16.24c-1.56,0-1.91-.52-1.91-1.83,0-3,3-7.72,10.68-7.72,7.38,0,10.42,4.34,10.42,7.55,0,1.39-.52,2-2.17,2Zm35.78,17.45c0,6.6,3.47,11,10.77,11,5.29,0,7.81-1.91,7.81-5.56,0-2.6-1.13-4-3.38-4-1,0-1.39.17-2,.17-1.13,0-1.48-.61-1.48-2.25,0-4.26.35-42.64.35-47.77,0-3.82-1.74-4.86-5.91-4.86-4.51,0-6.16,1.65-6.16,4.69v48.54Zm24.75-5.38c-3,0-4.34,1.47-4.34,4.6,0,4.34,5.12,11.81,19.45,11.81,14.5,0,20.93-6.34,20.93-13.81,0-6.16-2.61-10.24-17-12.76-9.82-1.74-11.29-3.3-11.29-6.6,0-3.13,2.78-4.69,7.73-4.69,4.16,0,6.94,1.3,8.94,4.69a5.14,5.14,0,0,0,4.52,2.78c3.56,0,5.64-1.57,5.64-4.52,0-6.25-5.64-12.07-19-12.07-9.81,0-19.36,4.6-19.36,14.68,0,6.08,2.6,11.55,15.11,13.63,10,1.65,12.76,2.35,12.76,5.38,0,2.18-1.65,4.35-7.73,4.35-11.63,0-10.76-7.47-16.32-7.47Z"/>
        <path class="cls-1" d="M12.68,117.26c0-3-.7-4.87-6.17-4.87C1.56,112.39,0,114,0,117.26c0,29.78.09,47,.09,53.84,0,2.86,1.13,4.43,5,4.43,3,0,4.69-.7,5.21-3.39.69-3.56.6-4.17,1.39-4.17,1.65,0,1.56,8.16,15.19,8.16,11.55,0,18.67-9.81,18.67-23.79,0-15.28-6.94-23.19-18-23.19s-12.68,6.26-14.16,6.26c-.69,0-.87-.35-.87-1.91s.18-2.87.18-7.3v-8.94Zm9.64,49.58c-6.08,0-10.25-5.12-10.25-13.63,0-10,4.6-13.2,10.77-13.2S33,143.22,33,152.6c0,9.21-4.26,14.24-10.68,14.24Zm69.73-2.43a4.24,4.24,0,0,0-4.34-4.51c-6.34,0-4.34,7-15.2,7-6.6,0-11.12-4.43-11.12-10.33,0-1.39.18-2.26,2.09-2.26l24.83.09c3.39,0,5-1.05,5-6.26,0-11.9-7.73-18.58-21.27-18.58-14.42,0-22.5,9.46-22.5,22.75,0,14.85,8.6,24.23,22.41,24.23,14.67,0,20.06-7.82,20.06-12.16Zm-28.4-16.24c-1.56,0-1.91-.52-1.91-1.82,0-3,3-7.73,10.68-7.73,7.38,0,10.42,4.34,10.42,7.56,0,1.38-.52,2-2.17,2Z"/>
        <path class="cls-1" d="M175.76,78.3c-23,0-45.85,17.33-45.85,46.32,0,28.11,26,45.59,48.64,45.59,24.89,0,36.9-7.8,57.88-3.56a57,57,0,0,1,29.66,15.53c2.11,2,4.78,2.26,6.61,1s3.05-3.47,1.82-8.91c-2.87-12.66-9.61-26.82-17.44-38.91-15.38-23.75-46.58-57.1-81.32-57.1Z"/>
        <path class="cls-1" d="M388.58,78.3c23,0,45.84,17.33,45.84,46.32,0,28.11-26,45.59-48.64,45.59-24.89,0-36.9-7.8-57.87-3.56a57,57,0,0,0-29.67,15.53c-2.1,2-4.77,2.26-6.6,1s-3.05-3.47-1.82-8.91c2.86-12.66,9.61-26.82,17.44-38.91,15.38-23.75,46.57-57.1,81.32-57.1Z"/>
        <path class="cls-2" d="M311.6,0c-12.84,0-23.47,5.39-29.43,13.28C276.21,5.39,265.58,0,252.73,0c-23.25,0-44.59,18.51-44.59,45.37,0,11.78,4.73,20.72,9,27,4.88,7.12,11.31,13.29,21.41,22.06,14.66,12.72,26.71,25.14,38.22,49.43.91,1.94,2.86,4.12,5.38,4.12s4.46-2.18,5.38-4.12c11.51-24.29,23.56-36.71,38.21-49.43,10.11-8.77,16.53-14.94,21.42-22.06,4.28-6.25,9-15.19,9-27C356.19,18.51,334.85,0,311.6,0Z"/>
        <path class="cls-3" d="M310.52,13.28c-15.4,0-25,11.6-28.35,19.89-3.36-8.29-12.95-19.89-28.36-19.89a32.31,32.31,0,0,0-32.08,32.38,30.88,30.88,0,0,0,6.39,18.47c16.15,22.08,38.08,29.16,54.05,63.74,16-34.58,37.89-41.66,54.05-63.74a30.87,30.87,0,0,0,6.38-18.47,32.31,32.31,0,0,0-32.08-32.38Z"/>
      </g>
    </g>
  </g>
</svg>
